# xmcd
#
# Track frame offsets:
#	150
#	11784
#	23736
#	36990
#	47229
#	60151
#	72081
#	83599
#	94923
#	107547
#	120065
#	133107
#	145109
#	156974
#	169015
#	180937
#
# Disc length: 2549 seconds
#
# Revision: 1
# Processed by: cddbd v1.5.2PL0 Copyright (c) Steve Scherf et al.
# Submitted via: audiograbber 1.83.01
#
DISCID=c109f310
DTITLE=Lightnin' Hopkins - Moon Rise Blues
DYEAR=2008
DGENRE=Blues
TTITLE0=See See Rider
TTITLE1=Mistreated Blues
TTITLE2=Moon Rise Blues
TTITLE3=Lighnin's Boogie
TTITLE4=Drinkin´ Woman
TTITLE5=Have To Let You Go
TTITLE6=Honey Babe
TTITLE7=Baby You´re Not Going To Make A Fool Out Of Me
TTITLE8=Picture On the Wall
TTITLE9=I Just Don´t Care
TTITLE10=L.a. Blues
TTITLE11=Come Back Baby
TTITLE12=West Coast Blues
TTITLE13=Big Mama Jump
TTITLE14=Can't Get That Woman Off My Mind
TTITLE15=You're Gonna Miss Me
EXTD=
EXTT0=
EXTT1=
EXTT2=
EXTT3=
EXTT4=
EXTT5=
EXTT6=
EXTT7=
EXTT8=
EXTT9=
EXTT10=
EXTT11=
EXTT12=
EXTT13=
EXTT14=
EXTT15=
PLAYORDER=
